<?xml version="1.0" standalone="no"?>
<!DOCTYPE svg PUBLIC "-//W3C//DTD SVG 20010904//EN"
 "http://www.w3.org/TR/2001/REC-SVG-20010904/DTD/svg10.dtd">
<svg version="1.0" xmlns="http://www.w3.org/2000/svg"
 width="512.000000pt" height="512.000000pt" viewBox="0 0 512.000000 512.000000"
 preserveAspectRatio="xMidYMid meet">

<g transform="translate(0.000000,512.000000) scale(0.100000,-0.100000)"
fill="#000000" stroke="none">
<path d="M403 5020 c-94 -22 -172 -104 -193 -204 -8 -36 -10 -585 -8 -1911 3
-1691 4 -1863 19 -1896 26 -56 79 -110 134 -135 l50 -24 1180 0 c1129 0 1182
1 1221 19 51 23 104 75 130 127 19 38 19 80 19 1944 l0 1905 -27 47 c-16 25
-45 60 -65 78 -77 63 -23 60 -1282 59 -630 -1 -1160 -4 -1178 -9z m2377 -123
c19 -12 43 -38 54 -57 21 -35 21 -37 21 -1905 l0 -1870 -23 -37 c-13 -21 -40
-45 -66 -57 -43 -21 -45 -21 -1199 -19 -1155 3 -1156 3 -1184 24 -15 11 -38
36 -51 54 l-22 33 2 1881 3 1881 22 31 c48 68 -35 64 1249 64 l1161 0 33 -23z"/>
<path d="M690 4730 c-11 -11 -20 -27 -20 -35 0 -25 -60 -204 -102 -308 -29
-68 -49 -104 -69 -118 -31 -22 -39 -65 -17 -87 7 -7 39 -12 75 -12 55 0 64 3
78 24 13 19 13 29 4 49 -8 18 -8 30 0 46 10 18 20 21 86 21 85 0 98 -11 88
-74 -8 -53 7 -66 83 -66 55 0 66 3 78 23 19 27 11 64 -15 72 -11 4 -35 37 -54
75 -37 74 -125 326 -125 359 0 20 -34 51 -57 51 -7 0 -22 -9 -33 -20z m65
-290 l14 -40 -43 0 -44 0 21 56 c22 60 25 59 52 -16z"/>
<path d="M1240 3440 c-60 -13 -89 -28 -138 -74 -87 -81 -125 -198 -104 -320
22 -133 78 -216 212 -314 41 -31 134 -104 206 -163 122 -100 144 -113 185
-110 9 0 61 39 116 85 55 46 155 124 221 174 90 68 129 106 159 150 163 243
35 573 -222 575 -79 1 -147 -31 -233 -109 l-62 -56 -64 59 c-94 88 -186 123
-276 103z"/>
<path d="M2202 1694 c-12 -8 -22 -26 -22 -39 0 -24 7 -33 43 -58 22 -15 98
-198 138 -335 17 -59 36 -113 42 -119 5 -7 22 -13 37 -13 33 0 45 13 55 60 14
63 76 243 112 321 21 46 46 85 64 98 34 25 37 53 9 81 -25 25 -105 27 -139 4
-20 -14 -22 -22 -17 -55 10 -64 4 -69 -85 -69 -69 0 -80 2 -89 21 -9 15 -8 24
0 35 18 21 3 63 -26 74 -38 15 -97 12 -122 -6z m278 -218 c0 -4 -27 -82 -36
-106 -4 -10 -13 3 -24 35 -26 72 -26 75 20 75 22 0 40 -2 40 -4z"/>
<path d="M3085 4360 c-10 -31 4 -79 28 -95 12 -7 384 -221 827 -475 443 -253
818 -474 834 -489 22 -22 30 -41 33 -78 l5 -48 -804 -1405 c-442 -773 -820
-1432 -839 -1465 -42 -72 -87 -105 -142 -105 -34 0 -102 36 -461 244 -496 287
-469 272 -528 281 -61 9 -90 0 -86 -28 2 -17 108 -83 488 -303 297 -173 504
-287 533 -294 81 -21 171 6 229 67 37 39 1688 2928 1705 2983 25 81 -2 174
-69 236 -38 36 -1707 994 -1731 994 -9 0 -19 -9 -22 -20z"/>
<path d="M3114 4027 l-29 -25 -5 -1494 -5 -1493 -32 -67 c-38 -81 -102 -146
-181 -185 -52 -25 -69 -28 -199 -33 -118 -4 -145 -8 -160 -23 -13 -13 -15 -21
-7 -34 5 -9 104 -69 220 -134 181 -103 215 -118 255 -119 32 0 56 7 79 22 25
18 191 300 782 1333 413 721 755 1325 760 1344 13 46 -3 99 -39 132 -33 31
-1349 785 -1385 794 -18 5 -33 0 -54 -18z"/>
</g>
</svg>
